<?xml version="1.0" encoding="UTF-8" standalone="no"?>
<!-- Created with Inkscape (http://www.inkscape.org/) -->

<svg
   width="264.58334mm"
   height="264.58334mm"
   viewBox="0 0 264.58334 264.58334"
   version="1.1"
   id="svg5"
   xml:space="preserve"
   inkscape:export-filename="Facebook SVG.png"
   inkscape:export-xdpi="300"
   inkscape:export-ydpi="300"
   xmlns:inkscape="http://www.inkscape.org/namespaces/inkscape"
   xmlns:sodipodi="http://sodipodi.sourceforge.net/DTD/sodipodi-0.dtd"
   xmlns="http://www.w3.org/2000/svg"
   xmlns:svg="http://www.w3.org/2000/svg"><sodipodi:namedview
     id="namedview7"
     pagecolor="#ffffff"
     bordercolor="#000000"
     borderopacity="0.25"
     inkscape:showpageshadow="2"
     inkscape:pageopacity="0.0"
     inkscape:pagecheckerboard="0"
     inkscape:deskcolor="#d1d1d1"
     inkscape:document-units="mm"
     showgrid="false" /><defs
     id="defs2" /><g
     inkscape:label="Capa 1"
     inkscape:groupmode="layer"
     id="layer1"
     transform="translate(2.7430936,-40.816906)"><g
       id="g182"
       transform="matrix(0.26458333,0,0,0.26458333,-3.0076769,40.552323)"><path
         fill="#4067aa"
         opacity="1"
         stroke="none"
         d="m 73.08049,453.24249 c 0.119988,-0.61844 0.23996,-1.23684 0.600647,-2.36279 0.240715,-0.50748 0.256912,-0.86972 0.256912,-0.86972 0.998497,-9.01636 1.605805,-18.09659 3.065842,-27.0376 5.240807,-32.0935 13.957031,-63.26254 26.143259,-93.41055 18.96113,-46.90875 45.46267,-89.18208 79.29155,-126.77219 27.77804,-30.86651 59.51352,-57.02424 94.96886,-78.72443 27.09018,-16.58034 55.72489,-29.739862 85.77085,-39.866716 23.50054,-7.920761 47.60189,-13.282799 72.09384,-17.279617 28.33627,-4.624173 56.84131,-4.552964 85.30569,-3.72308 26.13605,0.762001 51.92175,5.215191 77.33313,11.549351 39.81531,9.92453 77.47028,25.183761 112.79865,46.037132 35.33422,20.8568 67.08038,46.23234 95.10724,76.25983 31.26995,33.50217 56.61224,70.9917 75.94573,112.512 13.81727,29.67386 24.547,60.45242 30.59577,92.65988 3.29852,17.56348 5.48663,35.34161 7.91876,53.0582 0.79169,5.76699 0.77075,11.64554 0.95288,18.33166 -0.14276,12.90784 -0.11706,24.95706 -0.0913,37.00632 -0.32464,7.69452 -0.33374,15.41772 -1.03094,23.07837 -2.42883,26.68945 -7.56104,52.8786 -15.01447,78.62573 -7.51233,25.94989 -17.23944,50.99835 -29.41803,75.13684 -14.08111,27.9093 -30.99249,53.92127 -50.70434,78.16638 -19.07526,23.46216 -40.4325,44.59363 -64.00019,63.51416 -22.25738,17.86859 -46.02752,33.45185 -71.44494,46.40985 -32.7431,16.69257 -66.9704,29.42108 -103.04718,36.79438 -12.98114,2.65301 -26.03613,5.06799 -39.15375,6.90228 -22.29974,3.11822 -44.78836,3.37231 -67.24478,2.67346 -25.47955,-0.79285 -50.65387,-4.39374 -75.52506,-9.96301 C 376.23483,905.60699 348.88,896.34973 322.42789,884.40204 289.4809,869.52087 259.06888,850.51117 230.97662,827.83386 208.12556,809.38739 187.44109,788.71704 168.86182,765.93219 148.58087,741.06049 131.18993,714.32373 116.92452,685.60382 98.23877,647.98456 85.06057,608.49219 78.096008,567.0354 75.741699,553.02124 74.16835,538.87488 72.327843,524.77722 c -0.164162,-1.25745 0.336235,-2.60168 0.592552,-4.76282 0.02428,-19.10434 -0.01599,-37.35147 -0.05627,-55.59863 0.02539,-0.61401 0.05079,-1.22803 0.382256,-2.34582 0.186393,-1.65989 0.06671,-2.81592 -0.05298,-3.97199 -0.06599,-1.16922 -0.131973,-2.33841 -0.163849,-4.06329 0.03411,-0.55567 0.05093,-0.79218 0.05093,-0.79218 m 484.535358,60.25757 c 0,-9.75308 0,-19.50619 0,-29.76376 36.32714,0 71.89923,0 107.58459,0 0.19305,-1.11862 0.39758,-1.75113 0.39771,-2.38367 0.01,-37.33026 -0.058,-74.6607 0.0818,-111.99045 0.0158,-4.22058 -2.23614,-3.95553 -5.05926,-3.95141 -27.49768,0.0401 -54.99549,0.0304 -82.49323,0.0344 -6.62402,9.5e-4 -13.24804,1.5e-4 -20.4845,1.5e-4 0,-11.54651 -0.0662,-22.82294 0.0297,-34.09805 0.0438,-5.15091 -0.30359,-10.4491 0.74579,-15.42325 5.23407,-24.80993 25.82116,-41.20416 51.24206,-41.24469 16.83191,-0.0268 33.66388,0.005 50.49585,-0.0147 1.74701,-0.002 3.49384,-0.17914 5.26642,-0.2764 0.0898,-1.46542 0.18439,-2.28924 0.18439,-3.11306 0.002,-36.33031 -0.0762,-72.66092 0.0817,-108.99053 0.019,-4.36522 -1.13977,-5.64575 -5.5899,-5.62677 -39.32941,0.16779 -78.6612,0.28647 -117.98938,0.008 -21.5564,-0.15248 -42.05564,3.93004 -61.16641,13.8414 -45.99039,23.85185 -72.18195,61.75726 -76.49115,113.29516 -2.09006,24.99692 -0.61771,50.29175 -0.75562,75.45172 -0.0106,1.9451 -10e-4,3.89032 -10e-4,5.99555 -1.42832,0.13251 -2.22297,0.27103 -3.01758,0.27057 -29.9968,-0.0176 -59.99405,0.026 -89.98987,-0.15976 -4.29749,-0.0266 -5.66519,1.09021 -5.6391,5.58944 0.2088,35.99582 0.14078,71.99323 0.17493,107.99015 0.001,1.45276 0.17669,2.90533 0.30523,4.88614 32.69544,0 65.1009,0 98.14725,0 0,120.76922 0,240.98779 0,361.35028 1.75803,0.18969 2.89237,0.4187 4.0268,0.41919 48.32937,0.021 96.65878,-0.0111 144.98797,0.0861 3.92639,0.008 5.03833,-1.24518 5.03406,-5.20874 -0.11639,-108.65766 -0.10205,-217.31543 -0.10882,-326.97327 z"
         id="path155" /><path
         fill="#516992"
         opacity="1"
         stroke="none"
         d="m 72.544144,464.75635 c 0.36026,17.90658 0.400535,36.15371 0.4142,54.87646 -0.33606,-0.25763 -0.916245,-0.99127 -0.915299,-1.72406 0.02266,-17.60397 0.107521,-35.20788 0.501099,-53.1524 z"
         id="path157" /><path
         fill="#4e688f"
         opacity="1"
         stroke="none"
         d="m 921.45862,510.26825 c -0.34558,-11.70734 -0.37128,-23.75656 -0.36261,-36.32013 0.33124,1.55698 0.87951,3.6279 0.88226,5.69958 0.0135,10.09278 -0.11896,20.18573 -0.51965,30.62055 z"
         id="path159" /><path
         fill="#516992"
         opacity="1"
         stroke="none"
         d="m 72.962807,458.30429 c 0.350288,0.94974 0.46997,2.10577 0.341362,3.46161 -0.356171,-0.95191 -0.464066,-2.10361 -0.341362,-3.46161 z"
         id="path161" /><path
         fill="#516992"
         opacity="1"
         stroke="none"
         d="m 73.837936,450.08496 c 0.100113,-0.075 0.08392,0.28726 0.07272,0.37421 -0.0112,0.0869 -0.172837,-0.29923 -0.07272,-0.37421 z"
         id="path163" /><path
         fill="#516992"
         opacity="1"
         stroke="none"
         d="m 72.92897,453.23206 c 0.15152,0.0104 0.134697,0.24694 0.147065,0.36389 0.01237,0.11691 -0.367562,0.0171 -0.367562,0.0171 0,0 0.06898,-0.39139 0.220497,-0.38095 z"
         id="path165" /><path
         fill="#fefeff"
         opacity="1"
         stroke="none"
         d="m 557.61554,514.00012 c 0.007,109.15778 -0.007,217.81555 0.10913,326.47321 0.004,3.96356 -1.10767,5.21661 -5.03406,5.20874 -48.32919,-0.0972 -96.6586,-0.0651 -144.98797,-0.0861 -1.13443,-4.9e-4 -2.26877,-0.2295 -4.0268,-0.41919 0,-120.36249 0,-240.58106 0,-361.35028 -33.04635,0 -65.45181,0 -98.14725,0 -0.12854,-1.98081 -0.30386,-3.43338 -0.30523,-4.88614 -0.0342,-35.99692 0.0339,-71.99433 -0.17493,-107.99015 -0.0261,-4.49923 1.34161,-5.61608 5.6391,-5.58944 29.99582,0.18576 59.99307,0.14215 89.98987,0.15976 0.79461,4.6e-4 1.58926,-0.13806 3.01758,-0.27057 0,-2.10523 -0.009,-4.05045 0.001,-5.99555 0.13791,-25.15997 -1.33444,-50.4548 0.75562,-75.45172 4.3092,-51.5379 30.50076,-89.44331 76.49115,-113.29516 19.11077,-9.91136 39.61001,-13.99388 61.16641,-13.8414 39.32818,0.27821 78.65997,0.15953 117.98938,-0.008 4.45013,-0.019 5.60888,1.26155 5.5899,5.62677 -0.15783,36.32961 -0.0801,72.66022 -0.0817,108.99053 0,0.82382 -0.0946,1.64764 -0.18439,3.11306 -1.77258,0.0973 -3.51941,0.27436 -5.26642,0.2764 -16.83197,0.0199 -33.66394,-0.0121 -50.49585,0.0147 -25.4209,0.0405 -46.00799,16.43476 -51.24206,41.24469 -1.04938,4.97415 -0.70197,10.27234 -0.74579,15.42325 -0.096,11.27511 -0.0297,22.55154 -0.0297,34.09805 7.23646,0 13.86048,8e-4 20.4845,-1.5e-4 27.49774,-0.004 54.99555,0.006 82.49323,-0.0344 2.82312,-0.004 5.07507,-0.26917 5.05926,3.95141 -0.13983,37.32975 -0.0719,74.66019 -0.0818,111.99045 -1.3e-4,0.63254 -0.20466,1.26505 -0.39771,2.38367 -35.68536,0 -71.25745,0 -107.58459,0 0,10.25757 0,20.01068 -3.1e-4,30.26382 z"
         id="path167" /></g></g></svg>
