<?xml version="1.0" encoding="utf-8"?>
<!-- Uploaded to: SVG Repo, www.svgrepo.com, Generator: SVG Repo Mixer Tools -->
<svg width="800px" height="800px" viewBox="-10.98 0 84.878 84.878" xmlns="http://www.w3.org/2000/svg">
  <g id="time_cronometer" data-name="time cronometer" transform="translate(-873.556 -236.194)">
    <path id="Path_120" data-name="Path 120" d="M905.016,262.253a27.362,27.362,0,1,0,27.358,27.358A27.357,27.357,0,0,0,905.016,262.253Z" fill="#f4f4f4"/>
    <path id="Path_121" data-name="Path 121" d="M905.016,236.194a10.863,10.863,0,1,0,10.859,10.862A10.869,10.869,0,0,0,905.016,236.194Zm0,19.774a8.912,8.912,0,1,1,8.91-8.912A8.91,8.91,0,0,1,905.016,255.968Z" fill="#163844"/>
    <path id="Path_122" data-name="Path 122" d="M930.582,289.611a25.571,25.571,0,1,1-25.566-25.566A25.564,25.564,0,0,1,930.582,289.611Z" fill="#27b7ff"/>
    <path id="Path_123" data-name="Path 123" d="M905.016,258.151a31.46,31.46,0,1,0,31.461,31.46A31.455,31.455,0,0,0,905.016,258.151Zm0,58.826a27.362,27.362,0,1,1,27.358-27.366A27.36,27.36,0,0,1,905.016,316.977Z" fill="#163844"/>
    <path id="Path_124" data-name="Path 124" d="M879.871,257.257l-3.808,3.8a1.841,1.841,0,0,0,0,2.605l5.26,5.261a31.625,31.625,0,0,1,6.9-5.917l-5.751-5.752A1.841,1.841,0,0,0,879.871,257.257Zm54.093,3.8-3.8-3.8a1.846,1.846,0,0,0-2.609,0l-5.752,5.752a31.718,31.718,0,0,1,6.9,5.917l5.26-5.257A1.849,1.849,0,0,0,933.964,261.06Z" fill="#576d78"/>
    <path id="Path_125" data-name="Path 125" d="M887.755,274.2,902.1,288.652l3.706,1.891.482.434,2.3,4.731,1.314-1.462h0l1.909-2.13-5.255-1.767-2.573-3.774Z" fill="#163844"/>
    <path id="Path_126" data-name="Path 126" d="M909.315,289.611a4.3,4.3,0,1,1-4.3-4.3A4.306,4.306,0,0,1,909.315,289.611Z" fill="#f4f4f4"/>
    <path id="Path_127" data-name="Path 127" d="M908.809,251.808h-7.585a1.841,1.841,0,0,0-1.843,1.845v5.031a30.054,30.054,0,0,1,11.27,0v-5.031A1.848,1.848,0,0,0,908.809,251.808Z" fill="#576d78"/>
  </g>
</svg>